<svg width="206" height="343" viewBox="0 0 206 343" fill="none" xmlns="http://www.w3.org/2000/svg">
<path d="M164.8 306.413H145.344V126.91C145.344 103.472 126.461 85.1782 103.572 85.1782C80.6832 85.1782 61.7999 103.472 61.7999 126.91V175.502H41.7721V126.91C41.5467 118.877 42.9071 110.879 45.7759 103.371C48.6446 95.8637 52.9653 88.9942 58.4914 83.155C69.6519 71.3621 85.0446 64.4814 101.283 64.0265C117.522 63.5717 133.276 69.5799 145.081 80.7296C156.885 91.8793 163.772 107.257 164.228 123.48L164.8 306.413V306.413Z" fill="#24324B"/>
<path d="M18.8833 173.214H187.117V321.276H18.8833V173.214Z" fill="#9DB1F8"/>
<path d="M119.022 234.955C119.022 226.38 112.155 219.52 103.572 219.52C94.9887 219.52 88.1221 226.38 88.1221 234.955C88.1221 239.528 90.411 244.101 93.8443 247.531V276.115H113.3V247.531C116.733 244.101 119.022 239.528 119.022 234.955Z" fill="#374164"/>
</svg>
