<svg width="284" height="169" viewBox="0 0 284 169" fill="none" xmlns="http://www.w3.org/2000/svg">
<g clip-path="url(#clip0)">
<path d="M48.3476 147.03H206.914V76.0498H0V147.03H24.0048V169L48.3476 147.03Z" fill="#5C639E"/>
<path d="M237.005 130.13H24.3428V49.0098H285.352V130.13H261.348V152.1L237.005 130.13V130.13Z" fill="#9DB1F8"/>
<path d="M81.1428 86.1898H70.3237L66.9428 76.0498L63.5618 86.1898H52.7428L61.5333 92.6118L58.1523 103.09L66.9428 96.6678L75.7333 103.09L72.3523 92.6118L81.1428 86.1898V86.1898Z" fill="#0043C6"/>
<path d="M125.095 86.1898H114.276L110.895 76.0498L107.514 86.1898H96.6952L105.486 92.6118L102.105 103.09L110.895 96.6678L119.686 103.09L116.305 92.6118L125.095 86.1898Z" fill="#0043C6"/>
<path d="M169.048 86.1898H158.229L154.848 76.0498L151.467 86.1898H140.648L149.438 92.6118L146.057 103.09L154.848 96.6678L163.638 103.09L160.257 92.6118L169.048 86.1898Z" fill="#0043C6"/>
<path d="M213 86.1898H202.181L198.8 76.0498L195.419 86.1898H184.6L193.39 92.6118L190.01 103.09L198.8 96.6678L207.59 103.09L204.21 92.6118L213 86.1898Z" fill="#0043C6"/>
<path d="M256.952 86.1898H246.133L242.752 76.0498L239.371 86.1898H228.552L237.343 92.6118L233.962 103.09L242.752 96.6678L251.543 103.09L248.162 92.6118L256.952 86.1898V86.1898Z" fill="#0043C6"/>
</g>
<defs>
<clipPath id="clip0">
<rect width="284" height="169" fill="white"/>
</clipPath>
</defs>
</svg>
